<svg width="25" height="24" viewBox="0 0 25 24" fill="none" xmlns="http://www.w3.org/2000/svg">
<g clip-path="url(#clip0_35_75)">
<path d="M9.5 19C5.2 20.4 5.2 16.5 3.5 16M15.5 21V17.5C15.5 16.5 15.6 16.1 15 15.5C17.8 15.2 20.5 14.1 20.5 9.5C20.4988 8.30496 20.0325 7.15731 19.2 6.3C19.5905 5.26196 19.5545 4.11162 19.1 3.1C19.1 3.1 18 2.8 15.6 4.4C13.5672 3.87058 11.4328 3.87058 9.4 4.4C7 2.8 5.9 3.1 5.9 3.1C5.44548 4.11162 5.40953 5.26196 5.8 6.3C4.96745 7.15731 4.50122 8.30496 4.5 9.5C4.5 14.1 7.2 15.2 10 15.5C9.4 16.1 9.4 16.7 9.5 17.5V21" stroke="currentColor" stroke-width="2" stroke-linecap="round" stroke-linejoin="round"/>
</g>
<defs>
<clipPath id="clip0_35_75">
<rect width="24" height="24" fill="currentColor" transform="translate(0.5)"/>
</clipPath>
</defs>
</svg>
