<?xml version="1.0" encoding="UTF-8" standalone="no"?>
<svg
   xmlns:dc="http://purl.org/dc/elements/1.1/"
   xmlns:cc="http://creativecommons.org/ns#"
   xmlns:rdf="http://www.w3.org/1999/02/22-rdf-syntax-ns#"
   xmlns:svg="http://www.w3.org/2000/svg"
   xmlns="http://www.w3.org/2000/svg"
   xmlns:sodipodi="http://sodipodi.sourceforge.net/DTD/sodipodi-0.dtd"
   xmlns:inkscape="http://www.inkscape.org/namespaces/inkscape"
   height="1024pt"
   viewBox=".5 -.2 1023 1024.1"
   width="1024pt"
   version="1.1"
   id="svg6"
   sodipodi:docname="next-js.svg"
   inkscape:version="1.0.2-2 (e86c870879, 2021-01-15)">
  <metadata
     id="metadata12">
    <rdf:RDF>
      <cc:Work
         rdf:about="">
        <dc:format>image/svg+xml</dc:format>
        <dc:type
           rdf:resource="http://purl.org/dc/dcmitype/StillImage" />
        <dc:title></dc:title>
      </cc:Work>
    </rdf:RDF>
  </metadata>
  <defs
     id="defs10" />
  <sodipodi:namedview
     pagecolor="#ffffff"
     bordercolor="#666666"
     borderopacity="1"
     objecttolerance="10"
     gridtolerance="10"
     guidetolerance="10"
     inkscape:pageopacity="0"
     inkscape:pageshadow="2"
     inkscape:window-width="3200"
     inkscape:window-height="1711"
     id="namedview8"
     showgrid="false"
     inkscape:zoom="0.53833008"
     inkscape:cx="682.66667"
     inkscape:cy="682.66667"
     inkscape:window-x="2391"
     inkscape:window-y="-9"
     inkscape:window-maximized="1"
     inkscape:current-layer="svg6" />
  <ellipse
     style="display:inline;fill:#ffffff;fill-opacity:1;stroke-width:0.823539"
     id="path16"
     cx="512.69659"
     cy="511.84998"
     rx="512.74664"
     ry="512.04999" />
  <path
     d="M 478.5,0.6 C 476.3,0.8 469.3,1.5 463,2 317.7,15.1 181.6,93.5 95.4,214 47.4,281 16.7,357 5.1,437.5 1,465.6 0.5,473.9 0.5,512 0.5,550.1 1,558.4 5.1,586.5 32.9,778.6 169.6,940 355,999.8 c 33.2,10.7 68.2,18 108,22.4 15.5,1.7 82.5,1.7 98,0 68.7,-7.6 126.9,-24.6 184.3,-53.9 8.8,-4.5 10.5,-5.7 9.3,-6.7 -0.8,-0.6 -38.3,-50.9 -83.3,-111.7 L 589.5,739.4 487,587.7 C 430.6,504.3 384.2,436.1 383.8,436.1 c -0.4,-0.1 -0.8,67.3 -1,149.6 -0.3,144.1 -0.4,149.9 -2.2,153.3 -2.6,4.9 -4.6,6.9 -8.8,9.1 -3.2,1.6 -6,1.9 -21.1,1.9 h -17.3 l -4.6,-2.9 c -3,-1.9 -5.2,-4.4 -6.7,-7.3 l -2.1,-4.5 0.2,-200.5 0.3,-200.6 3.1,-3.9 c 1.6,-2.1 5,-4.8 7.4,-6.1 4.1,-2 5.7,-2.2 23,-2.2 20.4,0 23.8,0.8 29.1,6.6 1.5,1.6 57,85.2 123.4,185.9 66.4,100.7 157.2,238.2 201.8,305.7 l 81,122.7 4.1,-2.7 c 36.3,-23.6 74.7,-57.2 105.1,-92.2 64.7,-74.3 106.4,-164.9 120.4,-261.5 4.1,-28.1 4.6,-36.4 4.6,-74.5 0,-38.1 -0.5,-46.4 -4.6,-74.5 C 991.1,245.4 854.4,84 669,24.2 636.3,13.6 601.5,6.3 562.5,1.9 c -9.6,-1 -75.7,-2.1 -84,-1.3 z M 687.9,310 c 4.8,2.4 8.7,7 10.1,11.8 0.8,2.6 1,58.2 0.8,183.5 L 698.5,685.1 666.8,636.5 635,587.9 V 457.2 c 0,-84.5 0.4,-132 1,-134.3 1.6,-5.6 5.1,-10 9.9,-12.6 4.1,-2.1 5.6,-2.3 21.3,-2.3 14.8,0 17.4,0.2 20.7,2 z"
     id="path2"
     style="display:inline;fill:#000000;fill-opacity:1" />
  <path
     d="m 784.3,945.1 c -3.5,2.2 -4.6,3.7 -1.5,2 2.2,-1.3 5.8,-4 5.2,-4.1 -0.3,0 -2,1 -3.7,2.1 z m -6.9,4.5 c -1.8,1.4 -1.8,1.5 0.4,0.4 1.2,-0.6 2.2,-1.3 2.2,-1.5 0,-0.8 -0.5,-0.6 -2.6,1.1 z m -5,3 c -1.8,1.4 -1.8,1.5 0.4,0.4 1.2,-0.6 2.2,-1.3 2.2,-1.5 0,-0.8 -0.5,-0.6 -2.6,1.1 z m -5,3 c -1.8,1.4 -1.8,1.5 0.4,0.4 1.2,-0.6 2.2,-1.3 2.2,-1.5 0,-0.8 -0.5,-0.6 -2.6,1.1 z m -7.6,4 c -3.8,2 -3.6,2.8 0.2,0.9 1.7,-0.9 3,-1.8 3,-2 0,-0.7 -0.1,-0.6 -3.2,1.1 z"
     id="path4"
     style="display:inline" />
  <path
     style="display:inline;fill:#000000;fill-opacity:1;stroke-width:1.86052"
     d="M 626.00998,1362.4266 C 571.36163,1358.5979 501.2046,1343.0759 447.39664,1322.909 343.34102,1283.9096 254.54972,1223.9289 178.84045,1141.493 90.530331,1045.3366 32.136882,925.39574 10.160081,795.02149 -4.8374061,706.05104 -1.1361911,608.46048 20.609084,519.51084 58.534433,364.37617 152.0322,226.25269 284.24514,130.04347 367.35947,69.562515 467.42255,27.427576 568.42449,10.380174 c 79.68377,-13.4492589 173.985,-11.6903338 252.63311,4.712163 105.92367,22.090967 200.153,66.580809 287.9274,135.943283 27.0277,21.35826 82.0332,76.01097 102.6219,101.96386 83.3744,105.09645 131.0655,216.69467 147.9485,346.20215 4.0677,31.20257 5.5709,92.00155 3.2158,130.06708 -5.9928,96.86207 -35.3075,196.73805 -82.8821,282.38159 -14.8718,26.7721 -45.8546,72.9312 -65.3328,97.3347 -22.0482,27.6234 -66.8602,73.1416 -96.2833,97.8007 -27.8118,23.3087 -63.2188,48.7765 -65.6895,47.2495 -0.9285,-0.5738 -98.95642,-148.3836 -217.83988,-328.46622 C 558.44431,507.03544 511.95954,437.42622 505.84021,433.04818 c -4.08331,-2.92139 -9.18619,-3.73446 -27.86395,-4.43967 -27.17797,-1.02618 -36.77713,1.03354 -45.50851,9.76491 l -6.14938,6.14939 V 713.2235 c 0,293.1691 -0.68878,274.46677 10.43018,283.21293 4.48182,3.5254 7.36791,3.87917 31.64352,3.87917 h 26.71192 l 6.93872,-6.35654 6.9387,-6.3566 1.20782,-37.76131 c 0.66432,-20.76873 1.29126,-111.66413 1.3932,-201.98977 l 0.18537,-164.22845 10.8121,15.62074 c 14.3509,20.73339 103.32772,151.93518 192.2874,283.53959 66.37389,98.19165 147.25369,210.02094 265.39758,366.95464 12.13059,16.1134 22.51302,30.4889 23.07202,31.9457 0.7214,1.8799 -4.32766,5.3304 -17.39662,11.8887 -108.80906,54.6029 -230.65261,77.9115 -359.9303,68.8543 z M 932.83699,548.28569 c -0.74908,-115.62731 -0.92449,-120.64209 -4.38194,-125.27297 -8.27191,-11.07934 -12.07779,-12.44027 -36.4732,-13.04233 -20.60721,-0.5086 -23.36057,-0.17703 -30.84849,3.71519 -16.13233,8.38549 -14.99821,-6.31941 -14.99821,194.46652 v 177.24771 l 42.26031,64.63887 42.26032,64.63888 1.48077,-122.97144 c 0.8144,-67.63428 1.12962,-177.17347 0.70044,-243.42043 z"
     id="path14"
     transform="matrix(0.75007322,0,0,0.75007322,-0.05,-0.2)" />
</svg>
